{
	"asset":{
		"generator":"Khronos glTF Blender I/O v4.3.47",
		"version":"2.0"
	},
	"scene":0,
	"scenes":[
		{
			"name":"Scene",
			"nodes":[
				6
			]
		}
	],
	"nodes":[
		{
			"mesh":0,
			"name":"TailLight1"
		},
		{
			"mesh":1,
			"name":"TailLight1.001"
		},
		{
			"children":[
				0,
				1
			],
			"mesh":2,
			"name":"Body"
		},
		{
			"mesh":3,
			"name":"Head"
		},
		{
			"mesh":4,
			"name":"Track1"
		},
		{
			"mesh":5,
			"name":"Track2"
		},
		{
			"children":[
				2,
				3,
				4,
				5
			],
			"name":"Tank",
			"translation":[
				0,
				0.5977185368537903,
				0
			]
		}
	],
	"materials":[
		{
			"doubleSided":true,
			"name":"tail lights",
			"pbrMetallicRoughness":{
				"baseColorFactor":[
					0.7237082123756409,
					0.14506246149539948,
					0.09506870806217194,
					1
				],
				"metallicFactor":0,
				"roughnessFactor":0.5
			}
		},
		{
			"doubleSided":true,
			"name":"Material",
			"pbrMetallicRoughness":{
				"baseColorTexture":{
					"index":0
				},
				"metallicFactor":0,
				"roughnessFactor":0.5
			}
		},
		{
			"doubleSided":true,
			"name":"head.001",
			"pbrMetallicRoughness":{
				"baseColorTexture":{
					"index":1
				},
				"metallicFactor":0,
				"roughnessFactor":0.5
			}
		},
		{
			"doubleSided":true,
			"name":"black",
			"pbrMetallicRoughness":{
				"baseColorFactor":[
					0,
					0,
					0,
					1
				],
				"metallicFactor":0,
				"roughnessFactor":0.5
			}
		}
	],
	"meshes":[
		{
			"name":"Cube",
			"primitives":[
				{
					"attributes":{
						"POSITION":0,
						"NORMAL":1,
						"TEXCOORD_0":2
					},
					"indices":3,
					"material":0
				}
			]
		},
		{
			"name":"Cube.008",
			"primitives":[
				{
					"attributes":{
						"POSITION":4,
						"NORMAL":5,
						"TEXCOORD_0":6
					},
					"indices":3,
					"material":0
				}
			]
		},
		{
			"name":"Cube.003",
			"primitives":[
				{
					"attributes":{
						"POSITION":7,
						"NORMAL":8,
						"TEXCOORD_0":9
					},
					"indices":10,
					"material":1
				}
			]
		},
		{
			"name":"Cube.005",
			"primitives":[
				{
					"attributes":{
						"POSITION":11,
						"NORMAL":12,
						"TEXCOORD_0":13
					},
					"indices":14,
					"material":2
				}
			]
		},
		{
			"name":"Cube.001",
			"primitives":[
				{
					"attributes":{
						"POSITION":15,
						"NORMAL":16,
						"TEXCOORD_0":17
					},
					"indices":18,
					"material":3
				}
			]
		},
		{
			"name":"Cube.002",
			"primitives":[
				{
					"attributes":{
						"POSITION":19,
						"NORMAL":20,
						"TEXCOORD_0":21
					},
					"indices":22,
					"material":3
				}
			]
		}
	],
	"textures":[
		{
			"sampler":0,
			"source":0
		},
		{
			"sampler":0,
			"source":1
		}
	],
	"images":[
		{
			"mimeType":"image/png",
			"name":"body",
			"uri":"body.png"
		},
		{
			"mimeType":"image/png",
			"name":"head",
			"uri":"head.png"
		}
	],
	"accessors":[
		{
			"bufferView":0,
			"componentType":5126,
			"count":24,
			"max":[
				-4.145883560180664,
				2.5042333602905273,
				13.994294166564941
			],
			"min":[
				-7.563501358032227,
				1.15659499168396,
				13.337328910827637
			],
			"type":"VEC3"
		},
		{
			"bufferView":1,
			"componentType":5126,
			"count":24,
			"type":"VEC3"
		},
		{
			"bufferView":2,
			"componentType":5126,
			"count":24,
			"type":"VEC2"
		},
		{
			"bufferView":3,
			"componentType":5123,
			"count":36,
			"type":"SCALAR"
		},
		{
			"bufferView":4,
			"componentType":5126,
			"count":24,
			"max":[
				7.426103591918945,
				2.5042333602905273,
				13.994294166564941
			],
			"min":[
				4.008485794067383,
				1.15659499168396,
				13.337328910827637
			],
			"type":"VEC3"
		},
		{
			"bufferView":5,
			"componentType":5126,
			"count":24,
			"type":"VEC3"
		},
		{
			"bufferView":6,
			"componentType":5126,
			"count":24,
			"type":"VEC2"
		},
		{
			"bufferView":7,
			"componentType":5126,
			"count":40,
			"max":[
				8.088447570800781,
				2.753699779510498,
				13.634516716003418
			],
			"min":[
				-8.249370574951172,
				-0.8729501366615295,
				-12.553436279296875
			],
			"type":"VEC3"
		},
		{
			"bufferView":8,
			"componentType":5126,
			"count":40,
			"type":"VEC3"
		},
		{
			"bufferView":9,
			"componentType":5126,
			"count":40,
			"type":"VEC2"
		},
		{
			"bufferView":10,
			"componentType":5123,
			"count":60,
			"type":"SCALAR"
		},
		{
			"bufferView":11,
			"componentType":5126,
			"count":198,
			"max":[
				7.217922687530518,
				9.878861427307129,
				10.148515701293945
			],
			"min":[
				-7.494076251983643,
				2.587496280670166,
				-20.923118591308594
			],
			"type":"VEC3"
		},
		{
			"bufferView":12,
			"componentType":5126,
			"count":198,
			"type":"VEC3"
		},
		{
			"bufferView":13,
			"componentType":5126,
			"count":198,
			"type":"VEC2"
		},
		{
			"bufferView":14,
			"componentType":5123,
			"count":306,
			"type":"SCALAR"
		},
		{
			"bufferView":15,
			"componentType":5126,
			"count":32,
			"max":[
				7.547464370727539,
				0.22812891006469727,
				11.230871200561523
			],
			"min":[
				3.5679867267608643,
				-3.751349925994873,
				-11.517393112182617
			],
			"type":"VEC3"
		},
		{
			"bufferView":16,
			"componentType":5126,
			"count":32,
			"type":"VEC3"
		},
		{
			"bufferView":17,
			"componentType":5126,
			"count":32,
			"type":"VEC2"
		},
		{
			"bufferView":18,
			"componentType":5123,
			"count":54,
			"type":"SCALAR"
		},
		{
			"bufferView":19,
			"componentType":5126,
			"count":32,
			"max":[
				-3.839690923690796,
				0.22812891006469727,
				11.230871200561523
			],
			"min":[
				-7.819168567657471,
				-3.751349925994873,
				-11.517393112182617
			],
			"type":"VEC3"
		},
		{
			"bufferView":20,
			"componentType":5126,
			"count":32,
			"type":"VEC3"
		},
		{
			"bufferView":21,
			"componentType":5126,
			"count":32,
			"type":"VEC2"
		},
		{
			"bufferView":22,
			"componentType":5123,
			"count":54,
			"type":"SCALAR"
		}
	],
	"bufferViews":[
		{
			"buffer":0,
			"byteLength":288,
			"byteOffset":0,
			"target":34962
		},
		{
			"buffer":0,
			"byteLength":288,
			"byteOffset":288,
			"target":34962
		},
		{
			"buffer":0,
			"byteLength":192,
			"byteOffset":576,
			"target":34962
		},
		{
			"buffer":0,
			"byteLength":72,
			"byteOffset":768,
			"target":34963
		},
		{
			"buffer":0,
			"byteLength":288,
			"byteOffset":840,
			"target":34962
		},
		{
			"buffer":0,
			"byteLength":288,
			"byteOffset":1128,
			"target":34962
		},
		{
			"buffer":0,
			"byteLength":192,
			"byteOffset":1416,
			"target":34962
		},
		{
			"buffer":0,
			"byteLength":480,
			"byteOffset":1608,
			"target":34962
		},
		{
			"buffer":0,
			"byteLength":480,
			"byteOffset":2088,
			"target":34962
		},
		{
			"buffer":0,
			"byteLength":320,
			"byteOffset":2568,
			"target":34962
		},
		{
			"buffer":0,
			"byteLength":120,
			"byteOffset":2888,
			"target":34963
		},
		{
			"buffer":0,
			"byteLength":2376,
			"byteOffset":3008,
			"target":34962
		},
		{
			"buffer":0,
			"byteLength":2376,
			"byteOffset":5384,
			"target":34962
		},
		{
			"buffer":0,
			"byteLength":1584,
			"byteOffset":7760,
			"target":34962
		},
		{
			"buffer":0,
			"byteLength":612,
			"byteOffset":9344,
			"target":34963
		},
		{
			"buffer":0,
			"byteLength":384,
			"byteOffset":9956,
			"target":34962
		},
		{
			"buffer":0,
			"byteLength":384,
			"byteOffset":10340,
			"target":34962
		},
		{
			"buffer":0,
			"byteLength":256,
			"byteOffset":10724,
			"target":34962
		},
		{
			"buffer":0,
			"byteLength":108,
			"byteOffset":10980,
			"target":34963
		},
		{
			"buffer":0,
			"byteLength":384,
			"byteOffset":11088,
			"target":34962
		},
		{
			"buffer":0,
			"byteLength":384,
			"byteOffset":11472,
			"target":34962
		},
		{
			"buffer":0,
			"byteLength":256,
			"byteOffset":11856,
			"target":34962
		},
		{
			"buffer":0,
			"byteLength":108,
			"byteOffset":12112,
			"target":34963
		}
	],
	"samplers":[
		{
			"magFilter":9729,
			"minFilter":9987
		}
	],
	"buffers":[
		{
			"byteLength":12220,
			"uri":"tank_gen_2.bin"
		}
	]
}
